<mxfile host="app.diagrams.net" modified="2023-09-12T07:31:57.407Z" agent="Mozilla/5.0 (Windows NT 10.0; Win64; x64) AppleWebKit/537.36 (KHTML, like Gecko) Chrome/116.0.0.0 Safari/537.36" etag="orB_p1hxB_oUjn0eSzeK" version="21.7.0" type="github">
  <diagram name="第 1 页" id="6mjsTrui0T2yqNCnwQ9Z">
    <mxGraphModel dx="976" dy="559" grid="1" gridSize="10" guides="1" tooltips="1" connect="1" arrows="1" fold="1" page="1" pageScale="1" pageWidth="827" pageHeight="1169" math="0" shadow="0">
      <root>
        <mxCell id="0" />
        <mxCell id="1" parent="0" />
        <mxCell id="Aq65J9v7RtVeyPqquBQ7-26" value="" style="rounded=1;whiteSpace=wrap;html=1;" vertex="1" parent="1">
          <mxGeometry x="120" y="433" width="180" height="240" as="geometry" />
        </mxCell>
        <mxCell id="Aq65J9v7RtVeyPqquBQ7-2" value="后台接口网关-zuul" style="rounded=0;whiteSpace=wrap;html=1;" vertex="1" parent="1">
          <mxGeometry x="388" y="323" width="120" height="60" as="geometry" />
        </mxCell>
        <mxCell id="Aq65J9v7RtVeyPqquBQ7-3" value="Web浏览器" style="rounded=0;whiteSpace=wrap;html=1;" vertex="1" parent="1">
          <mxGeometry x="110" y="123" width="450" height="40" as="geometry" />
        </mxCell>
        <mxCell id="Aq65J9v7RtVeyPqquBQ7-5" value="" style="shape=actor;whiteSpace=wrap;html=1;" vertex="1" parent="1">
          <mxGeometry x="309.25" y="20" width="52.5" height="50" as="geometry" />
        </mxCell>
        <mxCell id="Aq65J9v7RtVeyPqquBQ7-6" value="部门内部网关-流量转发" style="rounded=0;whiteSpace=wrap;html=1;" vertex="1" parent="1">
          <mxGeometry x="110" y="223" width="450" height="60" as="geometry" />
        </mxCell>
        <mxCell id="Aq65J9v7RtVeyPqquBQ7-7" value="" style="endArrow=classic;html=1;rounded=0;exitX=0.25;exitY=1;exitDx=0;exitDy=0;entryX=0.25;entryY=0;entryDx=0;entryDy=0;fillColor=#dae8fc;strokeColor=#6c8ebf;" edge="1" parent="1" source="Aq65J9v7RtVeyPqquBQ7-3" target="Aq65J9v7RtVeyPqquBQ7-6">
          <mxGeometry width="50" height="50" relative="1" as="geometry">
            <mxPoint x="300" y="353" as="sourcePoint" />
            <mxPoint x="350" y="303" as="targetPoint" />
          </mxGeometry>
        </mxCell>
        <mxCell id="Aq65J9v7RtVeyPqquBQ7-8" value="" style="endArrow=classic;html=1;rounded=0;exitX=0.25;exitY=1;exitDx=0;exitDy=0;fillColor=#dae8fc;strokeColor=#6c8ebf;" edge="1" parent="1" source="Aq65J9v7RtVeyPqquBQ7-6" target="Aq65J9v7RtVeyPqquBQ7-9">
          <mxGeometry width="50" height="50" relative="1" as="geometry">
            <mxPoint x="360" y="403" as="sourcePoint" />
            <mxPoint x="220" y="333" as="targetPoint" />
          </mxGeometry>
        </mxCell>
        <mxCell id="Aq65J9v7RtVeyPqquBQ7-9" value="ccseone-frontend" style="rounded=0;whiteSpace=wrap;html=1;fillColor=#dae8fc;strokeColor=#6c8ebf;" vertex="1" parent="1">
          <mxGeometry x="163" y="324" width="120" height="60" as="geometry" />
        </mxCell>
        <mxCell id="Aq65J9v7RtVeyPqquBQ7-11" value="dy/{业务标识}/#/{page}" style="text;html=1;strokeColor=none;fillColor=none;align=center;verticalAlign=middle;whiteSpace=wrap;rounded=0;" vertex="1" parent="1">
          <mxGeometry x="90" y="183" width="130" height="30" as="geometry" />
        </mxCell>
        <mxCell id="Aq65J9v7RtVeyPqquBQ7-12" value="" style="endArrow=classic;html=1;rounded=0;exitX=0.75;exitY=1;exitDx=0;exitDy=0;entryX=0.75;entryY=0;entryDx=0;entryDy=0;fillColor=#f8cecc;strokeColor=#b85450;" edge="1" parent="1" source="Aq65J9v7RtVeyPqquBQ7-3" target="Aq65J9v7RtVeyPqquBQ7-6">
          <mxGeometry width="50" height="50" relative="1" as="geometry">
            <mxPoint x="360" y="453" as="sourcePoint" />
            <mxPoint x="410" y="403" as="targetPoint" />
          </mxGeometry>
        </mxCell>
        <mxCell id="Aq65J9v7RtVeyPqquBQ7-13" value="" style="endArrow=classic;html=1;rounded=0;exitX=0.75;exitY=1;exitDx=0;exitDy=0;entryX=0.5;entryY=0;entryDx=0;entryDy=0;fillColor=#f8cecc;strokeColor=#b85450;" edge="1" parent="1" source="Aq65J9v7RtVeyPqquBQ7-6" target="Aq65J9v7RtVeyPqquBQ7-2">
          <mxGeometry width="50" height="50" relative="1" as="geometry">
            <mxPoint x="500" y="463" as="sourcePoint" />
            <mxPoint x="550" y="413" as="targetPoint" />
          </mxGeometry>
        </mxCell>
        <mxCell id="Aq65J9v7RtVeyPqquBQ7-14" value="dy/api/paas/{业务标识}/{服务path}" style="text;html=1;strokeColor=none;fillColor=none;align=center;verticalAlign=middle;whiteSpace=wrap;rounded=0;" vertex="1" parent="1">
          <mxGeometry x="450" y="183" width="200" height="30" as="geometry" />
        </mxCell>
        <mxCell id="Aq65J9v7RtVeyPqquBQ7-15" value="&lt;span style=&quot;color: rgb(0, 0, 0); font-family: Helvetica; font-size: 12px; font-style: normal; font-variant-ligatures: normal; font-variant-caps: normal; font-weight: 400; letter-spacing: normal; orphans: 2; text-align: center; text-indent: 0px; text-transform: none; widows: 2; word-spacing: 0px; -webkit-text-stroke-width: 0px; background-color: rgb(251, 251, 251); text-decoration-thickness: initial; text-decoration-style: initial; text-decoration-color: initial; float: none; display: inline !important;&quot;&gt;业务标识:ccseone&lt;/span&gt;" style="text;whiteSpace=wrap;html=1;" vertex="1" parent="1">
          <mxGeometry x="580" y="133" width="115" height="30" as="geometry" />
        </mxCell>
        <mxCell id="Aq65J9v7RtVeyPqquBQ7-16" value="ccseone-apiserver" style="rounded=0;whiteSpace=wrap;html=1;fillColor=#f8cecc;strokeColor=#b85450;" vertex="1" parent="1">
          <mxGeometry x="389" y="433" width="120" height="60" as="geometry" />
        </mxCell>
        <mxCell id="Aq65J9v7RtVeyPqquBQ7-17" value="" style="endArrow=classic;html=1;rounded=0;exitX=0.5;exitY=1;exitDx=0;exitDy=0;fillColor=#f8cecc;strokeColor=#b85450;" edge="1" parent="1" source="Aq65J9v7RtVeyPqquBQ7-2" target="Aq65J9v7RtVeyPqquBQ7-16">
          <mxGeometry width="50" height="50" relative="1" as="geometry">
            <mxPoint x="570" y="603" as="sourcePoint" />
            <mxPoint x="620" y="553" as="targetPoint" />
          </mxGeometry>
        </mxCell>
        <mxCell id="Aq65J9v7RtVeyPqquBQ7-20" value="kube-apiserver" style="rounded=0;whiteSpace=wrap;html=1;" vertex="1" parent="1">
          <mxGeometry x="150" y="493" width="120" height="60" as="geometry" />
        </mxCell>
        <mxCell id="Aq65J9v7RtVeyPqquBQ7-23" value="etcd" style="shape=cylinder3;whiteSpace=wrap;html=1;boundedLbl=1;backgroundOutline=1;size=15;" vertex="1" parent="1">
          <mxGeometry x="151.5" y="583" width="117" height="70" as="geometry" />
        </mxCell>
        <mxCell id="Aq65J9v7RtVeyPqquBQ7-24" value="" style="endArrow=classic;html=1;rounded=0;exitX=0.5;exitY=1;exitDx=0;exitDy=0;" edge="1" parent="1" source="Aq65J9v7RtVeyPqquBQ7-20" target="Aq65J9v7RtVeyPqquBQ7-23">
          <mxGeometry width="50" height="50" relative="1" as="geometry">
            <mxPoint x="380" y="693" as="sourcePoint" />
            <mxPoint x="430" y="643" as="targetPoint" />
          </mxGeometry>
        </mxCell>
        <mxCell id="Aq65J9v7RtVeyPqquBQ7-27" value="种子集群-k8s" style="text;html=1;strokeColor=none;fillColor=none;align=center;verticalAlign=middle;whiteSpace=wrap;rounded=0;" vertex="1" parent="1">
          <mxGeometry x="130" y="443" width="80" height="30" as="geometry" />
        </mxCell>
        <mxCell id="Aq65J9v7RtVeyPqquBQ7-28" value="" style="endArrow=classic;html=1;rounded=0;exitX=0;exitY=0.5;exitDx=0;exitDy=0;entryX=1;entryY=0.25;entryDx=0;entryDy=0;" edge="1" parent="1" source="Aq65J9v7RtVeyPqquBQ7-16" target="Aq65J9v7RtVeyPqquBQ7-20">
          <mxGeometry width="50" height="50" relative="1" as="geometry">
            <mxPoint x="410" y="713" as="sourcePoint" />
            <mxPoint x="460" y="663" as="targetPoint" />
          </mxGeometry>
        </mxCell>
        <mxCell id="Aq65J9v7RtVeyPqquBQ7-29" value="ccseone-controller" style="rounded=0;whiteSpace=wrap;html=1;fillColor=#f8cecc;strokeColor=#b85450;" vertex="1" parent="1">
          <mxGeometry x="360" y="573" width="120" height="60" as="geometry" />
        </mxCell>
        <mxCell id="Aq65J9v7RtVeyPqquBQ7-30" value="ccseone-agent" style="rounded=0;whiteSpace=wrap;html=1;fillColor=#f8cecc;strokeColor=#b85450;" vertex="1" parent="1">
          <mxGeometry x="570" y="573" width="120" height="60" as="geometry" />
        </mxCell>
        <mxCell id="Aq65J9v7RtVeyPqquBQ7-31" value="" style="endArrow=classic;html=1;rounded=0;exitX=0;exitY=0.5;exitDx=0;exitDy=0;entryX=1;entryY=0.75;entryDx=0;entryDy=0;" edge="1" parent="1" source="Aq65J9v7RtVeyPqquBQ7-29" target="Aq65J9v7RtVeyPqquBQ7-20">
          <mxGeometry width="50" height="50" relative="1" as="geometry">
            <mxPoint x="460" y="803" as="sourcePoint" />
            <mxPoint x="510" y="753" as="targetPoint" />
          </mxGeometry>
        </mxCell>
        <mxCell id="Aq65J9v7RtVeyPqquBQ7-32" value="" style="endArrow=classic;html=1;rounded=0;entryX=1;entryY=0.5;entryDx=0;entryDy=0;exitX=0;exitY=0;exitDx=0;exitDy=0;" edge="1" parent="1" source="Aq65J9v7RtVeyPqquBQ7-30" target="Aq65J9v7RtVeyPqquBQ7-20">
          <mxGeometry width="50" height="50" relative="1" as="geometry">
            <mxPoint x="670" y="773" as="sourcePoint" />
            <mxPoint x="720" y="723" as="targetPoint" />
          </mxGeometry>
        </mxCell>
        <mxCell id="Aq65J9v7RtVeyPqquBQ7-43" value="" style="endArrow=classic;html=1;rounded=0;exitX=0.75;exitY=1;exitDx=0;exitDy=0;entryX=0.5;entryY=0;entryDx=0;entryDy=0;" edge="1" parent="1" source="Aq65J9v7RtVeyPqquBQ7-29" target="Aq65J9v7RtVeyPqquBQ7-41">
          <mxGeometry width="50" height="50" relative="1" as="geometry">
            <mxPoint x="670" y="973" as="sourcePoint" />
            <mxPoint x="720" y="923" as="targetPoint" />
          </mxGeometry>
        </mxCell>
        <mxCell id="Aq65J9v7RtVeyPqquBQ7-44" value="" style="endArrow=classic;html=1;rounded=0;exitX=0.5;exitY=1;exitDx=0;exitDy=0;entryX=0.75;entryY=0;entryDx=0;entryDy=0;" edge="1" parent="1" source="Aq65J9v7RtVeyPqquBQ7-30" target="Aq65J9v7RtVeyPqquBQ7-41">
          <mxGeometry width="50" height="50" relative="1" as="geometry">
            <mxPoint x="690" y="853" as="sourcePoint" />
            <mxPoint x="740" y="803" as="targetPoint" />
          </mxGeometry>
        </mxCell>
        <mxCell id="Aq65J9v7RtVeyPqquBQ7-55" value="" style="endArrow=classic;html=1;rounded=0;exitX=0.5;exitY=1;exitDx=0;exitDy=0;entryX=0.5;entryY=0;entryDx=0;entryDy=0;" edge="1" parent="1" source="Aq65J9v7RtVeyPqquBQ7-5" target="Aq65J9v7RtVeyPqquBQ7-3">
          <mxGeometry width="50" height="50" relative="1" as="geometry">
            <mxPoint x="950" y="123" as="sourcePoint" />
            <mxPoint x="1000" y="73" as="targetPoint" />
          </mxGeometry>
        </mxCell>
        <mxCell id="Aq65J9v7RtVeyPqquBQ7-56" value="" style="endArrow=classic;html=1;rounded=0;exitX=0.25;exitY=1;exitDx=0;exitDy=0;entryX=0.5;entryY=0;entryDx=0;entryDy=0;" edge="1" parent="1" source="Aq65J9v7RtVeyPqquBQ7-35" target="Aq65J9v7RtVeyPqquBQ7-45">
          <mxGeometry width="50" height="50" relative="1" as="geometry">
            <mxPoint x="540" y="1423" as="sourcePoint" />
            <mxPoint x="590" y="1373" as="targetPoint" />
          </mxGeometry>
        </mxCell>
        <mxCell id="Aq65J9v7RtVeyPqquBQ7-57" value="" style="endArrow=classic;html=1;rounded=0;exitX=0.5;exitY=1;exitDx=0;exitDy=0;entryX=0.5;entryY=0;entryDx=0;entryDy=0;" edge="1" parent="1" source="Aq65J9v7RtVeyPqquBQ7-35" target="Aq65J9v7RtVeyPqquBQ7-50">
          <mxGeometry width="50" height="50" relative="1" as="geometry">
            <mxPoint x="530" y="1423" as="sourcePoint" />
            <mxPoint x="580" y="1373" as="targetPoint" />
          </mxGeometry>
        </mxCell>
        <mxCell id="Aq65J9v7RtVeyPqquBQ7-58" value="" style="group" vertex="1" connectable="0" parent="1">
          <mxGeometry x="536.25" y="1053" width="180" height="240" as="geometry" />
        </mxCell>
        <mxCell id="Aq65J9v7RtVeyPqquBQ7-50" value="" style="rounded=1;whiteSpace=wrap;html=1;" vertex="1" parent="Aq65J9v7RtVeyPqquBQ7-58">
          <mxGeometry width="180" height="240" as="geometry" />
        </mxCell>
        <mxCell id="Aq65J9v7RtVeyPqquBQ7-51" value="kube-apiserver" style="rounded=0;whiteSpace=wrap;html=1;" vertex="1" parent="Aq65J9v7RtVeyPqquBQ7-58">
          <mxGeometry x="30" y="60" width="120" height="60" as="geometry" />
        </mxCell>
        <mxCell id="Aq65J9v7RtVeyPqquBQ7-52" value="etcd" style="shape=cylinder3;whiteSpace=wrap;html=1;boundedLbl=1;backgroundOutline=1;size=15;" vertex="1" parent="Aq65J9v7RtVeyPqquBQ7-58">
          <mxGeometry x="31.5" y="150" width="117" height="70" as="geometry" />
        </mxCell>
        <mxCell id="Aq65J9v7RtVeyPqquBQ7-53" value="" style="endArrow=classic;html=1;rounded=0;exitX=0.5;exitY=1;exitDx=0;exitDy=0;" edge="1" source="Aq65J9v7RtVeyPqquBQ7-51" target="Aq65J9v7RtVeyPqquBQ7-52" parent="Aq65J9v7RtVeyPqquBQ7-58">
          <mxGeometry width="50" height="50" relative="1" as="geometry">
            <mxPoint x="260" y="260" as="sourcePoint" />
            <mxPoint x="310" y="210" as="targetPoint" />
          </mxGeometry>
        </mxCell>
        <mxCell id="Aq65J9v7RtVeyPqquBQ7-54" value="租户N工作集群N-k8s" style="text;html=1;strokeColor=none;fillColor=none;align=center;verticalAlign=middle;whiteSpace=wrap;rounded=0;" vertex="1" parent="Aq65J9v7RtVeyPqquBQ7-58">
          <mxGeometry x="10" y="10" width="120" height="30" as="geometry" />
        </mxCell>
        <mxCell id="Aq65J9v7RtVeyPqquBQ7-59" value="" style="group" vertex="1" connectable="0" parent="1">
          <mxGeometry x="250" y="1053" width="180" height="240" as="geometry" />
        </mxCell>
        <mxCell id="Aq65J9v7RtVeyPqquBQ7-45" value="" style="rounded=1;whiteSpace=wrap;html=1;" vertex="1" parent="Aq65J9v7RtVeyPqquBQ7-59">
          <mxGeometry width="180" height="240" as="geometry" />
        </mxCell>
        <mxCell id="Aq65J9v7RtVeyPqquBQ7-46" value="kube-apiserver" style="rounded=0;whiteSpace=wrap;html=1;" vertex="1" parent="Aq65J9v7RtVeyPqquBQ7-59">
          <mxGeometry x="30" y="60" width="120" height="60" as="geometry" />
        </mxCell>
        <mxCell id="Aq65J9v7RtVeyPqquBQ7-47" value="etcd" style="shape=cylinder3;whiteSpace=wrap;html=1;boundedLbl=1;backgroundOutline=1;size=15;" vertex="1" parent="Aq65J9v7RtVeyPqquBQ7-59">
          <mxGeometry x="31.5" y="150" width="117" height="70" as="geometry" />
        </mxCell>
        <mxCell id="Aq65J9v7RtVeyPqquBQ7-48" value="" style="endArrow=classic;html=1;rounded=0;exitX=0.5;exitY=1;exitDx=0;exitDy=0;" edge="1" source="Aq65J9v7RtVeyPqquBQ7-46" target="Aq65J9v7RtVeyPqquBQ7-47" parent="Aq65J9v7RtVeyPqquBQ7-59">
          <mxGeometry width="50" height="50" relative="1" as="geometry">
            <mxPoint x="260" y="260" as="sourcePoint" />
            <mxPoint x="310" y="210" as="targetPoint" />
          </mxGeometry>
        </mxCell>
        <mxCell id="Aq65J9v7RtVeyPqquBQ7-49" value="租户N工作集群1-k8s" style="text;html=1;strokeColor=none;fillColor=none;align=center;verticalAlign=middle;whiteSpace=wrap;rounded=0;" vertex="1" parent="Aq65J9v7RtVeyPqquBQ7-59">
          <mxGeometry x="10" y="10" width="120" height="30" as="geometry" />
        </mxCell>
        <mxCell id="Aq65J9v7RtVeyPqquBQ7-60" value="" style="group" vertex="1" connectable="0" parent="1">
          <mxGeometry x="400" y="703" width="230" height="260" as="geometry" />
        </mxCell>
        <mxCell id="Aq65J9v7RtVeyPqquBQ7-41" value="" style="rounded=1;whiteSpace=wrap;html=1;" vertex="1" parent="Aq65J9v7RtVeyPqquBQ7-60">
          <mxGeometry width="180" height="240" as="geometry" />
        </mxCell>
        <mxCell id="Aq65J9v7RtVeyPqquBQ7-35" value="" style="rounded=1;whiteSpace=wrap;html=1;" vertex="1" parent="Aq65J9v7RtVeyPqquBQ7-60">
          <mxGeometry x="50" y="20" width="180" height="240" as="geometry" />
        </mxCell>
        <mxCell id="Aq65J9v7RtVeyPqquBQ7-36" value="kube-apiserver" style="rounded=0;whiteSpace=wrap;html=1;" vertex="1" parent="Aq65J9v7RtVeyPqquBQ7-60">
          <mxGeometry x="80" y="80" width="120" height="60" as="geometry" />
        </mxCell>
        <mxCell id="Aq65J9v7RtVeyPqquBQ7-37" value="etcd" style="shape=cylinder3;whiteSpace=wrap;html=1;boundedLbl=1;backgroundOutline=1;size=15;" vertex="1" parent="Aq65J9v7RtVeyPqquBQ7-60">
          <mxGeometry x="81.5" y="170" width="117" height="70" as="geometry" />
        </mxCell>
        <mxCell id="Aq65J9v7RtVeyPqquBQ7-38" value="" style="endArrow=classic;html=1;rounded=0;exitX=0.5;exitY=1;exitDx=0;exitDy=0;" edge="1" source="Aq65J9v7RtVeyPqquBQ7-36" target="Aq65J9v7RtVeyPqquBQ7-37" parent="Aq65J9v7RtVeyPqquBQ7-60">
          <mxGeometry width="50" height="50" relative="1" as="geometry">
            <mxPoint x="310" y="280" as="sourcePoint" />
            <mxPoint x="360" y="230" as="targetPoint" />
          </mxGeometry>
        </mxCell>
        <mxCell id="Aq65J9v7RtVeyPqquBQ7-39" value="租户N管控集群N - k8s" style="text;html=1;strokeColor=none;fillColor=none;align=center;verticalAlign=middle;whiteSpace=wrap;rounded=0;" vertex="1" parent="Aq65J9v7RtVeyPqquBQ7-60">
          <mxGeometry x="60" y="30" width="130" height="30" as="geometry" />
        </mxCell>
      </root>
    </mxGraphModel>
  </diagram>
</mxfile>
